# xmcd
#
# Track frame offsets:
#	150
#	18060
#	24763
#	40896
#	66309
#	68712
#	72845
#	88290
#	92426
#	105265
#	111053
#	125847
#	129643
#	148832
#	154632
#	174040
#	193631
#	198443
#	219150
#
# Disc length: 3098 seconds
#
# Revision: 1
# Processed by: cddbd v1.5.2PL0 Copyright (c) Steve Scherf et al.
# Submitted via: audiograbber 1.83.01
#
DISCID=fb0c1813
DTITLE=Heli Deinboek - Juengste Geruechte
DYEAR=2006
DGENRE=Blues
TTITLE0=Rosemaries Baby
TTITLE1=Statistisch gsehn
TTITLE2=Mathematik
TTITLE3=Trottelmaschin
TTITLE4=Hätt i nur ned
TTITLE5=Gassenweis
TTITLE6=Pfandltag
TTITLE7=Die Phrase
TTITLE8=I komm ned dazu
TTITLE9=Der Glaube
TTITLE10=Silberner Mond
TTITLE11=Schwer privat
TTITLE12=Warum Hochwürden
TTITLE13=Doktorschau
TTITLE14=Puh puh puh
TTITLE15=Der sechste Sinn
TTITLE16=Mitteltrist
TTITLE17=Killer vom Billa III
TTITLE18=Bau mi oo
EXTD=
EXTT0=
EXTT1=
EXTT2=
EXTT3=
EXTT4=
EXTT5=
EXTT6=
EXTT7=
EXTT8=
EXTT9=
EXTT10=
EXTT11=
EXTT12=
EXTT13=
EXTT14=
EXTT15=
EXTT16=
EXTT17=
EXTT18=
PLAYORDER=
